<svg xmlns="http://www.w3.org/2000/svg" width="960" height="540" viewBox="0 0 960 540" fill="none">
  <rect width="960" height="540" rx="28" fill="#F1F5F9"/>
  <rect x="40" y="40" width="880" height="460" rx="20" fill="white" stroke="#D9E1E8"/>
  <rect x="72" y="84" width="250" height="28" rx="8" fill="#0F6AD9" fill-opacity="0.12"/>
  <rect x="72" y="128" width="380" height="18" rx="6" fill="#CBD5E1"/>
  <rect x="72" y="156" width="340" height="18" rx="6" fill="#E2E8F0"/>

  <rect x="72" y="208" width="250" height="72" rx="14" fill="#ECFDF5" stroke="#86EFAC"/>
  <text x="92" y="242" fill="#166534" font-family="IBM Plex Sans, Arial, sans-serif" font-size="19" font-weight="700">1. Скачайте демо</text>
  <text x="92" y="264" fill="#166534" font-family="IBM Plex Sans, Arial, sans-serif" font-size="15">macOS или Windows</text>

  <rect x="356" y="208" width="250" height="72" rx="14" fill="#EFF6FF" stroke="#93C5FD"/>
  <text x="376" y="242" fill="#1E40AF" font-family="IBM Plex Sans, Arial, sans-serif" font-size="19" font-weight="700">2. Работайте 3 дня</text>
  <text x="376" y="264" fill="#1E40AF" font-family="IBM Plex Sans, Arial, sans-serif" font-size="15">на реальных задачах</text>

  <rect x="640" y="208" width="250" height="72" rx="14" fill="#FFF7ED" stroke="#FDBA74"/>
  <text x="660" y="242" fill="#9A3412" font-family="IBM Plex Sans, Arial, sans-serif" font-size="19" font-weight="700">3. Нужен ключ</text>
  <text x="660" y="264" fill="#9A3412" font-family="IBM Plex Sans, Arial, sans-serif" font-size="15">пишите на email</text>

  <path d="M322 244H346" stroke="#64748B" stroke-width="3" stroke-linecap="round"/>
  <path d="M606 244H630" stroke="#64748B" stroke-width="3" stroke-linecap="round"/>

  <rect x="72" y="320" width="818" height="140" rx="16" fill="#0F172A"/>
  <text x="104" y="366" fill="#F8FAFC" font-family="Manrope, Arial, sans-serif" font-size="28" font-weight="800">InsightStream</text>
  <text x="104" y="398" fill="#CBD5E1" font-family="IBM Plex Sans, Arial, sans-serif" font-size="20">Порядок в файлах, поиск информации и помощь с документами</text>
  <text x="104" y="429" fill="#94A3B8" font-family="IBM Plex Sans, Arial, sans-serif" font-size="16">Если в приложении появляется ошибка доступа — запросите ключ на bavadim@gmail.com</text>
</svg>
